inDegrees=yes
name=ik_S47_A01_T01
DataType=double
version=3
OpenSimVersion=4.3-2021-08-27-4bc7ad9
endheader
time	pelvis_tilt	pelvis_list	pelvis_rotation	pelvis_tx	pelvis_ty	pelvis_tz	hip_flexion_r	hip_adduction_r	hip_rotation_r	knee_angle_r	knee_angle_r_beta	ankle_angle_r	subtalar_angle_r	mtp_angle_r	hip_flexion_l	hip_adduction_l	hip_rotation_l	knee_angle_l	knee_angle_l_beta	ankle_angle_l	subtalar_angle_l	mtp_angle_l	lumbar_extension	lumbar_bending	lumbar_rotation	arm_flex_r	arm_add_r	arm_rot_r	elbow_flex_r	pro_sup_r	wrist_flex_r	wrist_dev_r	arm_flex_l	arm_add_l	arm_rot_l	elbow_flex_l	pro_sup_l	wrist_flex_l	wrist_dev_l
40.14000000000068	-5.022508118576575	-5.332998291536756	-89.36039974979117	0	0.9399999999999999	0	-7.778176158514493	3.314383954570823	-5.232952190916739	14.47690709706778	0.2526696943491671	0	0	0	11.60303502551661	-9.565673127856305	-10.49771916056843	3.34595662755241	0.05839795977971517	0	0	0	0	0	0	43.79885526884376	-43.79885526884376	4.990950924114463	84.87746909465187	85.00904934981683	0	0	43.79885526884376	-43.79885526884376	4.990950924114463	84.87746909465187	85.00904934981497	0	0
40.16000000000068	-4.27908577019332	-5.488893539127003	-89.43316288338693	0	0.9399999999999999	0	-7.756402393659712	2.441079304781351	-5.318180349102937	16.58495380586349	0.2894620502034823	0	0	0	11.29545724959994	-8.517473034078922	-11.27121889227353	4.502610226997099	0.07858537339506866	0	0	0	0	0	0	43.79940490564597	-43.79940490564597	4.990959191023039	84.87758103620089	85.00904108290847	0	0	43.79940490564597	-43.79940490564597	4.990959191023039	84.87758103620089	85.00904108290659	0	0
40.18000000000068	-3.261674884686127	-5.594179099359106	-89.16591870510857	0	0.9399999999999999	0	-7.898600934345673	1.273029337565369	-5.589485170151836	18.77330583291536	0.3276559982682296	0	0	0	12.31163760165945	-5.723557251035129	-6.973264702530185	6.412585063106307	0.1119207229154134	0	0	0	0	0	0	43.80430099253471	-43.80430099253471	4.991023295583162	84.87844907031641	85.00897697835049	0	0	43.80430099253471	-43.80430099253471	4.991023295583162	84.87844907031641	85.00897697834863	0	0
40.20000000000068	-1.280394542765025	-6.196963673131034	-88.3126462812872	0	0.9399999999999999	0	-8.02743351978121	-1.003930792902061	-6.620915786365473	21.72782726253115	0.379222125035755	0	0	0	12.55641221380259	-3.231839193624275	-2.537505633932267	8.354685889878048	0.1458167767482843	0	0	0	0	0	0	43.80990488951203	-43.80990488951203	4.99109640644317	84.87943905791124	85.00890386749293	0	0	43.80990488951203	-43.80990488951203	4.99109640644317	84.87943905791124	85.00890386749109	0	0
40.22000000000069	-0.9409806774649135	-6.422655493487718	-88.18675277011717	0	0.9399999999999999	0	-7.520646981757977	-1.903118535046951	-7.100531196815684	25.28220090554034	0.4412576479523707	0	0	0	12.02348537527575	-3.131299047056531	-2.175083441541063	9.657675584573218	0.1685582370402707	0	0	0	0	0	0	43.81059516155636	-43.81059516155636	4.991106759959831	84.87957925404692	85.00889351397656	0	0	43.81059516155636	-43.81059516155636	4.991106759959831	84.87957925404692	85.0088935139747	0	0
40.24000000000069	-0.4856815155988672	-6.872429927642587	-88.18279011550501	0	0.9399999999999999	0	-5.427416819435193	-3.791981816774766	-8.934536047527494	29.70803410638386	0.5185030094511698	0	0	0	11.53392884311969	-2.659350907716169	-2.45991203582547	10.66492999515071	0.1861381429100828	0	0	0	0	0	0	43.82135207470367	-43.82135207470367	4.991243663532506	84.88143305278938	85.00875661040847	0	0	43.82135207470367	-43.82135207470367	4.991243663532506	84.88143305278938	85.00875661040671	0	0
40.26000000000069	-0.1123373860611631	-7.222098949130847	-88.47332615233117	0	0.9399999999999999	0	-3.78924628305001	-5.344495181713174	-8.994125355284185	39.26677597397528	0.6853345273888718	0	0	0	7.783796820003089	-1.251574158002129	-7.647797743923986	9.327468917221983	0.162795043482954	0	0	0	0	0	0	43.8287802284441	-43.8287802284441	4.991338511890017	84.88271738573413	85.00866176205413	0	0	43.8287802284441	-43.8287802284441	4.991338511890017	84.88271738573413	85.00866176205248	0	0
40.2800000000007	0.4158092627782879	-7.638036426799385	-88.94922349487535	0	0.9399999999999999	0	-1.972586104600824	-6.536278613732371	-9.168005680577968	42.94497626247384	0.749531232970977	0	0	0	6.396125369257291	-0.8798241423848161	-7.779391225232708	9.053615499491997	0.1580153996757263	0	0	0	0	0	0	43.83492264221137	-43.83492264221137	4.991416462327371	84.88377290544904	85.00858381161937	0	0	43.83492264221137	-43.83492264221137	4.991416462327371	84.88377290544904	85.0085838116178	0	0
40.3000000000007	1.115872405988751	-8.088038695524171	-89.3858821170289	0	0.9399999999999999	0	-0.2912546326185485	-7.827487670091581	-9.475834483828814	47.86363256786846	0.8353779802740929	0	0	0	5.103842122255386	0.1692376452241244	-7.969057333729297	9.649891847329604	0.1684223851972596	0	0	0	0	0	0	43.84254352482947	-43.84254352482947	4.991512546254131	84.88507396903633	85.00848772769581	0	0	43.84254352482947	-43.84254352482947	4.991512546254131	84.88507396903633	85.0084877276943	0	0
40.3200000000007	1.522000347015863	-8.289127559259517	-89.50822113413352	0	0.9399999999999999	0	1.76601085146139	-8.744259552434631	-9.985883996382627	51.26852162839774	0.8948045050454654	0	0	0	4.098317857502393	0.501685956947386	-7.849156855964769	9.646802448924513	0.1683684650231849	0	0	0	0	0	0	43.84826455825504	-43.84826455825504	4.991584534981469	84.886048761739	85.0084157389709	0	0	43.84826455825504	-43.84826455825504	4.991584534981469	84.886048761739	85.0084157389694	0	0
40.34000000000071	2.358410208222443	-8.555557265316063	-89.49384962463095	0	0.9399999999999999	0	3.26694383443126	-10.38311607214221	-11.36298929851071	55.27443447543008	0.9647208737741195	0	0	0	3.264107880786936	1.404670825556529	-7.277901967129806	8.955512566305252	0.1563031804857536	0	0	0	0	0	0	43.85094149116521	-43.85094149116521	4.991619449434661	84.8865215352007	85.00838082451888	0	0	43.85094149116521	-43.85094149116521	4.991619449434661	84.8865215352007	85.00838082451739	0	0
40.36000000000071	3.042565583216641	-8.675469474909391	-89.2959917768717	0	0.9399999999999999	0	2.921243087454785	-11.66916736756564	-11.87545660858838	56.09187519968552	0.9789879058522641	0	0	0	2.75326774499948	2.279318907136826	-6.114131085105457	9.085708976166405	0.1585755365121068	0	0	0	0	0	0	43.85124249321439	-43.85124249321439	4.991623877661777	84.88658149745548	85.00837639629192	0	0	43.85124249321439	-43.85124249321439	4.991623877661777	84.88658149745548	85.00837639629043	0	0
40.38000000000071	3.443705606811467	-8.805665971747416	-89.15830960983848	0	0.9399999999999999	0	4.071850995098834	-12.92655545192581	-14.03099015269448	57.00644166979582	0.9949501019840311	0	0	0	2.120724813636969	2.643962212333163	-5.24368573896496	9.182187390964568	0.1602594025074395	0	0	0	0	0	0	43.85315840481769	-43.85315840481769	4.991648703720819	84.88691766487111	85.0083515702337	0	0	43.85315840481769	-43.85315840481769	4.991648703720819	84.88691766487111	85.00835157023222	0	0
40.40000000000072	3.509212075988354	-8.834992379135066	-89.59981978267662	0	0.9399999999999999	0	5.272414986522953	-13.92858184101969	-15.97965435956879	56.92001812204308	0.9934417265244914	0	0	0	1.20422796565486	2.805207062771563	-5.800666921667797	8.986600367271455	0.1568457649698186	0	0	0	0	0	0	43.85576127550343	-43.85576127550343	4.991681512740227	84.88736192877268	85.00831876121538	0	0	43.85576127550343	-43.85576127550343	4.991681512740227	84.88736192877268	85.00831876121391	0	0
40.42000000000072	3.438838494592752	-8.797357995448127	-89.83662591493528	0	0.9399999999999999	0	6.915243491762107	-13.925836950962	-17.46389206539536	56.47382614005623	0.9856542073428214	0	0	0	1.224502637848728	2.731657265703437	-6.08607733773224	9.253048169397188	0.1614961564016149	0	0	0	0	0	0	43.85954761218706	-43.85954761218706	4.991728472372405	84.88799780476745	85.00827180158473	0	0	43.85954761218706	-43.85954761218706	4.991728472372405	84.88799780476745	85.00827180158331	0	0
40.44000000000072	3.23603811659924	-8.687978205518245	-90.57397632047415	0	0.9399999999999999	0	10.29142804317913	-13.79405941352897	-17.41144330061174	57.82604334867469	1.009254849835341	0	0	0	0.2166748642073357	2.731036051590734	-7.152112829029712	8.374946414749715	0.1461703896154771	0	0	0	0	0	0	43.86523193925343	-43.86523193925343	4.991798875535396	84.88895112741385	85.00820139842408	0	0	43.86523193925343	-43.86523193925343	4.991798875535396	84.88895112741385	85.00820139842266	0	0
40.46000000000073	3.207655462756313	-8.631762935603657	-90.75713137351123	0	0.9399999999999999	0	11.86007258428082	-13.55204009749024	-16.73022036570572	56.20326202273318	0.980931972657782	0	0	0	0.257704410152584	2.701024971745706	-7.440329565937091	8.484435444723056	0.1480813336833267	0	0	0	0	0	0	43.87024819972481	-43.87024819972481	4.991860846801678	84.88979027452568	85.00813942715988	0	0	43.87024819972481	-43.87024819972481	4.991860846801678	84.88979027452568	85.00813942715844	0	0
40.48000000000073	3.123153368513252	-8.565448892854056	-90.92057284304308	0	0.9399999999999999	0	13.43008432906222	-12.40375484786123	-15.77554499497211	49.07035148260552	0.8564391984823474	0	0	0	-2.609340328864781	2.832491669099886	-6.208255821073573	5.767882036559795	0.1006685324046044	0	0	0	0	0	0	43.87984311845573	-43.87984311845573	4.991974685327756	84.89133175103161	85.00802558863751	0	0	43.87984311845573	-43.87984311845573	4.991974685327756	84.89133175103161	85.00802558863607	0	0
40.50000000000073	3.05668423462302	-8.386568281119455	-90.91237417091284	0	0.9399999999999999	0	14.49561203999486	-11.67363471343191	-15.10745365197172	44.98886429908157	0.7852038087519043	0	0	0	-3.320020170012082	2.869136033598145	-5.340126350384283	5.129728186262372	0.08953064658263533	0	0	0	0	0	0	43.8834201357976	-43.8834201357976	4.992017687067455	84.89191403347689	85.00798258689925	0	0	43.8834201357976	-43.8834201357976	4.992017687067455	84.89191403347689	85.00798258689778	0	0
40.52000000000073	3.031086682605958	-8.215618448619141	-90.73337088899389	0	0.9399999999999999	0	15.05158676510945	-11.01502237207597	-14.60218836462091	39.89843973112434	0.6963591397166409	0	0	0	-3.89673200887764	3.110697920440834	-3.971130140379673	4.402000618047743	0.07682940445975843	0	0	0	0	0	0	43.88400338741424	-43.88400338741424	4.992025973003699	84.89202623262521	85.00797430096333	0	0	43.88400338741424	-43.88400338741424	4.992025973003699	84.89202623262521	85.00797430096186	0	0
